<svg width="1275" height="884" viewBox="0 0 1275 884" fill="none" xmlns="http://www.w3.org/2000/svg">
<path d="M1273.5 2H2" stroke="#D5D5D4" stroke-width="3" stroke-linecap="round"/>
<path d="M1273.5 42H2" stroke="#D5D5D4" stroke-width="3" stroke-linecap="round"/>
<path d="M1273.5 82H2" stroke="#D5D5D4" stroke-width="3" stroke-linecap="round"/>
<path d="M1273.5 122H2" stroke="#D5D5D4" stroke-width="3" stroke-linecap="round"/>
<path d="M1273.5 162H2" stroke="#D5D5D4" stroke-width="3" stroke-linecap="round"/>
<path d="M1273.5 202H2" stroke="#D5D5D4" stroke-width="3" stroke-linecap="round"/>
<path d="M1273.5 242H2" stroke="#D5D5D4" stroke-width="3" stroke-linecap="round"/>
<path d="M1273.5 282H2" stroke="#D5D5D4" stroke-width="3" stroke-linecap="round"/>
<path d="M1273.5 322H2" stroke="#D5D5D4" stroke-width="3" stroke-linecap="round"/>
<path d="M1273.5 362H2" stroke="#D5D5D4" stroke-width="3" stroke-linecap="round"/>
<path d="M1273.5 402H2" stroke="#D5D5D4" stroke-width="3" stroke-linecap="round"/>
<path d="M1273.5 442H2" stroke="#D5D5D4" stroke-width="3" stroke-linecap="round"/>
<path d="M1273.5 482H2" stroke="#D5D5D4" stroke-width="3" stroke-linecap="round"/>
<path d="M1273.5 522H2" stroke="#D5D5D4" stroke-width="3" stroke-linecap="round"/>
<path d="M1273.5 562H2" stroke="#D5D5D4" stroke-width="3" stroke-linecap="round"/>
<path d="M1273.5 602H2" stroke="#D5D5D4" stroke-width="3" stroke-linecap="round"/>
<path d="M1273.5 642H2" stroke="#D5D5D4" stroke-width="3" stroke-linecap="round"/>
<path d="M1273.5 682H2" stroke="#D5D5D4" stroke-width="3" stroke-linecap="round"/>
<path d="M1273.5 722H2" stroke="#D5D5D4" stroke-width="3" stroke-linecap="round"/>
<path d="M1273.5 762H2" stroke="#D5D5D4" stroke-width="3" stroke-linecap="round"/>
<path d="M1273.5 802H2" stroke="#D5D5D4" stroke-width="3" stroke-linecap="round"/>
<path d="M1273.5 842H2" stroke="#D5D5D4" stroke-width="3" stroke-linecap="round"/>
<path d="M1273.5 882H2" stroke="#D5D5D4" stroke-width="3" stroke-linecap="round"/>
</svg>
